<?xml version="1.0" standalone="no"?>
<!DOCTYPE svg PUBLIC "-//W3C//DTD SVG 20010904//EN"
 "http://www.w3.org/TR/2001/REC-SVG-20010904/DTD/svg10.dtd">
<svg version="1.0" xmlns="http://www.w3.org/2000/svg"
 width="600.000000pt" height="600.000000pt" viewBox="0 0 600.000000 600.000000"
 preserveAspectRatio="xMidYMid meet">
<g transform="translate(0.000000,600.000000) scale(0.050000,-0.050000)"
fill="#000000" stroke="none">
<path d="M5671 11451 c-217 -63 -373 -221 -472 -477 -129 -333 -190 -407 -507
-607 l-100 -63 -95 37 c-52 21 -170 78 -263 129 -173 93 -234 100 -234 26 0
-41 -37 -43 -123 -7 -72 30 -85 -61 -25 -165 125 -214 634 -686 868 -805 105
-53 446 -159 512 -159 95 0 112 -19 67 -75 -147 -187 -141 -999 10 -1368 11
-26 -4 -35 -83 -46 -1303 -182 -2570 -1612 -2988 -3371 -112 -471 -115 -482
-177 -561 -278 -351 -233 -753 104 -929 105 -55 113 -65 197 -249 151 -330
278 -496 638 -831 136 -127 155 -154 207 -300 183 -509 404 -724 753 -734 197
-5 580 244 632 412 23 73 128 191 159 179 16 -6 24 -19 18 -28 -20 -33 134
-43 287 -19 253 40 262 40 1133 45 l839 5 89 -57 c595 -377 983 -424 1261
-152 148 145 192 267 194 543 l3 234 115 126 c257 282 404 584 470 963 36 205
57 253 110 253 161 0 623 311 699 470 177 374 -80 654 -697 757 l-140 24 -74
242 c-449 1460 -1399 2561 -2482 2875 -237 68 -629 129 -876 136 l-210 6 -35
106 c-103 310 -141 901 -70 1086 91 233 389 310 340 87 -82 -373 423 -567 595
-228 108 210 -5 463 -233 524 l-85 23 117 106 c254 230 379 526 383 911 l2
156 111 75 c150 99 150 112 -1 184 -113 53 -133 71 -162 147 -117 308 -444
460 -781 364z m409 -133 c243 -110 302 -239 305 -675 3 -379 -19 -477 -166
-726 -409 -695 -1565 -524 -2156 318 l-45 65 94 -41 c169 -72 162 15 -11 124
-123 79 -103 72 144 -50 l215 -105 -60 -45 c-57 -42 -91 -183 -45 -183 8 0 57
-39 108 -87 319 -297 930 -204 1070 162 38 99 7 176 -38 95 -147 -261 -476
-386 -745 -283 l-80 30 66 2 c73 1 231 64 184 73 -16 3 -102 12 -190 20 l-160
14 108 33 c96 28 172 90 99 80 -15 -2 -71 -3 -125 -1 l-98 2 159 96 c214 128
467 330 467 372 0 14 19 64 42 112 23 47 55 129 70 181 103 347 491 552 788
417z m67 -2047 c77 -71 77 -229 0 -290 -138 -108 -341 70 -236 208 16 21 29
59 29 85 0 68 133 66 207 -3z m-39 -1531 c481 -82 857 -227 1142 -442 77 -58
194 -146 260 -196 666 -502 1315 -1609 1501 -2562 219 -1122 -21 -2037 -636
-2428 -167 -106 -162 -229 5 -142 76 39 78 32 60 -181 -38 -450 -300 -625
-747 -498 -87 25 -649 301 -673 331 -18 22 -240 42 -240 22 0 -12 -293 -24
-735 -31 -404 -6 -771 -15 -815 -21 -44 -5 -134 -15 -200 -22 -66 -6 -154 -17
-195 -23 -63 -9 -73 -5 -63 21 32 84 -70 14 -272 -188 -545 -543 -882 -455
-1182 310 -30 76 -71 157 -92 180 -21 22 -67 78 -103 125 -37 47 -79 85 -95
85 -15 0 -28 9 -28 20 0 11 -11 21 -25 21 -62 3 -339 377 -459 619 l-74 150
204 27 c342 44 346 106 7 126 -849 48 -877 595 -64 1230 78 61 78 62 34 85
-40 22 -60 14 -174 -68 -146 -104 -146 -104 -97 116 304 1378 1198 2659 2158
3092 536 242 850 316 891 210 50 -132 138 -229 185 -203 24 14 47 26 50 28 4
2 -16 49 -45 104 -28 56 -51 111 -51 122 0 35 311 24 568 -19z m3273 -3257
c415 -113 557 -253 497 -491 -40 -162 -355 -396 -597 -445 l-59 -12 -1 218
c-1 197 -12 340 -52 672 -8 63 -11 115 -7 115 5 0 103 -26 219 -57z"/>
<path d="M5981 10921 c-62 -114 17 -246 101 -169 43 39 51 147 14 184 -36 36
-92 29 -115 -15z"/>
<path d="M7363 4717 c-178 -51 -299 -189 -340 -387 -99 -484 480 -819 825
-477 377 374 20 1009 -485 864z m446 -529 c8 -33 35 -60 72 -74 74 -28 75 -46
4 -63 -64 -16 -84 -42 -86 -111 -2 -47 -4 -46 -31 16 -20 45 -55 78 -110 103
l-80 36 62 12 c40 8 73 33 96 73 42 73 56 75 73 8z"/>
<path d="M4806 4671 c-359 -112 -479 -485 -258 -805 179 -260 574 -276 768
-30 332 418 -16 989 -510 835z m462 -513 c-15 -17 -28 -41 -28 -54 0 -12 -23
1 -51 28 l-50 51 44 46 44 46 35 -42 c30 -37 31 -47 6 -75z"/>
<path d="M6241 3981 c-56 -133 -153 -167 -239 -82 -68 66 -122 63 -122 -7 0
-164 245 -224 377 -92 52 52 62 55 85 28 134 -162 438 -49 389 144 -16 65 -37
60 -100 -22 -81 -106 -176 -94 -260 35 -47 72 -100 70 -130 -4z"/>
</g>
</svg>
